<svg xmlns="http://www.w3.org/2000/svg" width="45" height="30" viewBox="0 0 45 30">
    <defs>
        <clipPath id="cmpl-logo">
            <path d="M0 0h45v30H0z" />
        </clipPath>
    </defs>
    <g clip-path="url(#cmpl-logo)">
        <g>
            <g>
                <path fill="#00acdc"
                      d="m35.668 21.112-.614-.615A11.508 11.508 0 0 0 26.9.869V0a12.377 12.377 0 0 1 8.768 21.112Z" />
                <path fill="#203f9a"
                      d="M26.898 27.739a15.315 15.315 0 0 1-10.862-4.5l1.231-1.229A13.623 13.623 0 1 0 36.5 2.71l1.225-1.233a15.357 15.357 0 0 1-10.827 26.262Z" />
                <path fill="#ee4023"
                      d="M26.897 30v-1.281a16.342 16.342 0 0 0 16.342-16.342h1.281A17.608 17.608 0 0 1 26.897 30Z" />
                <path fill="#203f9a"
                      d="M2.703 13.581c0 1.431.5 1.975 1.3 1.975a1.14 1.14 0 0 0 1.18-.886h2.752c-.137 1.8-1.659 2.939-3.917 2.939-2.546 0-4.02-1.3-4.02-4.035v.007c0-2.736 1.474-4.035 4.02-4.035 2.258 0 3.78 1.135 3.917 2.939H5.183a1.139 1.139 0 0 0-1.18-.886c-.8 0-1.3.544-1.3 1.975ZM13.256 17.396v-4.8c0-.7-.393-.948-1.009-.948s-1.022.244-1.022.943v4.8H8.483v-7.65h2.6v.809a2.519 2.519 0 0 1 2.309-1.011 2.7 2.7 0 0 1 2.326.917 2.4 2.4 0 0 1 2.258-.917 2.5 2.5 0 0 1 2.72 2.457v5.4h-2.671v-4.8c0-.7-.393-.948-1.009-.948s-1.026.249-1.026.948v4.8ZM30.617 17.394h2.737V6.946h-2.737ZM26.654 9.544a2.917 2.917 0 0 0-2.435 1.035l-.033-.833h-2.617v11.273h2.685v-4.451a2.918 2.918 0 0 0 2.4 1.016c2.191 0 3.245-1.8 3.245-4.02s-1.287-4.02-3.245-4.02Zm-1.014 5.94c-1.125 0-1.488-.877-1.488-1.959s.372-1.959 1.488-1.959 1.488.877 1.488 1.959-.363 1.956-1.488 1.956Z" />
            </g>
        </g>
    </g>
</svg>